<svg width="120" height="72" viewBox="0 0 120 72" fill="none" xmlns="http://www.w3.org/2000/svg">
    <path d="M38.7656 35.5125L33.6656 55.3438H30.1031L34.4906 37.7656L33.7531 35.5125H38.7656ZM41.9781 55.3438L47.0781 35.5125H42.0781L40.5031 47.8969L37.7781 35.5125H33.8469L38.0344 55.3438H41.9781Z"
          fill="#252F3E"/>
    <path d="M62.753 46.7406C62.753 43.7156 62.753 41.1969 61.4155 38.8312C60.4155 36.9344 58.697 35.8937 56.5999 35.8937C53.7468 35.8937 51.5312 37.7531 51.5312 42.2781C51.5312 46.4031 53.7468 48.7281 57.3843 48.7281C58.5218 48.7281 59.6124 48.6375 60.8468 48.3906V46.4969L60.5093 46.5812C59.703 46.6719 58.8968 46.7406 58.1593 46.7406C56.1155 46.7406 54.6406 45.8125 54.6406 42.9406V42.5969H62.753V46.7406ZM54.6437 40.5281V41.0312H59.5187V40.5281C59.5187 38.4562 58.7812 37.4906 56.9749 37.4906C55.0718 37.4906 54.6437 38.7219 54.6437 40.5281Z"
          fill="#252F3E"/>
    <path d="M64.6157 42.8781C64.6157 45.6562 66 48.6344 70.5657 48.6344C71.5657 48.6344 72.5657 48.4968 73.472 48.3656V46.3312L73.1345 46.4219C72.4439 46.5562 71.7532 46.6469 71.0626 46.6469C68.0282 46.6469 67.7251 44.4844 67.7251 41.9219V37.4969H72.7532V35.5125H67.7251V31.9719L65.1439 32.3156L64.6126 35.5125H62.6126V37.4969H64.6157V42.8781Z"
          fill="#252F3E"/>
    <path d="M81.8906 46.8219C80.1312 46.8219 79.4406 45.6219 79.4406 42.5156V35.5125H76.8594V42.6812C76.8594 47.2125 78.5312 48.6812 82.0781 48.6812C85.6312 48.6812 87.3031 47.2125 87.3031 42.6812V35.5125H84.7312V42.5156C84.7312 45.6219 84.0406 46.8219 81.8906 46.8219Z"
          fill="#252F3E"/>
    <path d="M90.4123 55.3438L96.9498 35.5125H94.0966L87.559 55.3438H90.4123Z" fill="#252F3E"/>
    <path d="M28.5907 23.0812L19.0032 25.8156L28.5907 28.55V32.4937L13.3844 28.0875V23.5437L28.5907 19.1375V23.0812Z"
          fill="#FF9900"/>
    <path d="M30.0031 14.875V38.125L12.0031 32.3281V14.875L30.0031 9.125V14.875Z" fill="#252F3E"/>
    <path d="M107.622 23.0812L98.0344 25.8156L107.622 28.55V32.4937L92.4156 28.0875V23.5437L107.622 19.1375V23.0812Z"
          fill="#FF9900"/>
    <path d="M109.034 14.875V38.125L91.0344 32.3281V14.875L109.034 9.125V14.875Z" fill="#252F3E"/>
    <path d="M68.0344 23.0812L58.4469 25.8156L68.0344 28.55V32.4937L52.8281 28.0875V23.5437L68.0344 19.1375V23.0812Z"
          fill="#FF9900"/>
    <path d="M69.4469 14.875V38.125L51.4469 32.3281V14.875L69.4469 9.125V14.875Z" fill="#252F3E"/>
</svg>
