<svg width="36" height="36" viewBox="0 0 36 36" fill="none" xmlns="http://www.w3.org/2000/svg">
    <rect width="36" height="36" rx="18" fill="#232F3E"/>
    <path d="M16.6429 25.5C15.8254 25.5 15.1429 24.8284 15.1429 24C15.1429 23.1716 15.8254 22.5 16.6429 22.5C17.4603 22.5 18.1429 23.1716 18.1429 24C18.1429 24.8284 17.4603 25.5 16.6429 25.5Z"
          fill="#FF9900"/>
    <path d="M20.3571 25.5C19.5397 25.5 18.8571 24.8284 18.8571 24C18.8571 23.1716 19.5397 22.5 20.3571 22.5C21.1746 22.5 21.8571 23.1716 21.8571 24C21.8571 24.8284 21.1746 25.5 20.3571 25.5Z"
          fill="#FF9900"/>
    <path d="M18.5 17.25C17.6822 17.25 17.0057 17.8216 16.8739 18.5817L18.5 19.5L20.1261 18.5817C19.9943 17.8216 19.3178 17.25 18.5 17.25Z"
          fill="#FF9900"/>
    <path d="M25.6429 19.5H23.7143V13.5C23.7143 11.8431 22.3511 10.5 20.6429 10.5H16.3571C14.6489 10.5 13.2857 11.8431 13.2857 13.5V19.5H11.3571C10.8072 19.5 10.3572 19.9477 10.3572 20.5V21.5C10.3572 22.0523 10.8072 22.5 11.3571 22.5H25.6429C26.1928 22.5 26.6429 22.0523 26.6429 21.5V20.5C26.6429 19.9477 26.1928 19.5 25.6429 19.5ZM15.1429 13.5C15.1429 12.6716 15.8254 12 16.6429 12H20.3571C21.1746 12 21.8571 12.6716 21.8571 13.5V19.5H15.1429V13.5Z"
          fill="#FF9900"/>
</svg>
